<svg width="85" height="32" viewBox="0 0 85 32" fill="none" xmlns="http://www.w3.org/2000/svg">
<path d="M1.92 25V7.72H4.80795V22.292H12.44V25H1.92ZM20.244 25.36C18.8707 25.36 17.6613 25.0803 16.616 24.521C15.5707 23.9617 14.754 23.1743 14.166 22.159C13.578 21.1437 13.284 19.9507 13.284 18.58V7.74L16.212 7.72V18.504C16.212 19.1547 16.322 19.7357 16.542 20.247C16.762 20.7584 17.061 21.1924 17.439 21.549C17.817 21.9057 18.2483 22.1767 18.733 22.362C19.2177 22.5474 19.7213 22.64 20.244 22.64C20.78 22.64 21.2903 22.5457 21.775 22.357C22.2597 22.1684 22.6893 21.8957 23.064 21.539C23.4387 21.1824 23.7344 20.7484 23.951 20.237C24.1677 19.7257 24.276 19.148 24.276 18.504V7.72H27.204V18.58C27.204 19.9493 26.91 21.1417 26.322 22.157C25.734 23.1723 24.9173 23.96 23.872 24.52C22.8267 25.08 21.6173 25.36 20.244 25.36ZM29.364 25V7.72H31.964L37.948 19.9561L43.92 7.72H46.528V24.996H43.82V13.9239L38.52 25H37.372L32.072 13.9239V25H29.364ZM48.924 25V7.72H51.812V25H48.924ZM54.216 25V7.72H57.144L65.156 19.9001V7.72H68.084V25H65.156L57.144 12.8159V25H54.216ZM69.048 25L74.496 7.72H78.7359L84.184 25H81.204L76.264 9.49597H76.904L72.028 25H69.048ZM72.088 21.252V18.552H81.16V21.252H72.088Z" fill="#000613"/>
</svg>
